<?xml version="1.0" standalone="no"?>
<!DOCTYPE svg PUBLIC "-//W3C//DTD SVG 20010904//EN"
 "http://www.w3.org/TR/2001/REC-SVG-20010904/DTD/svg10.dtd">
<svg version="1.0" xmlns="http://www.w3.org/2000/svg"
 width="452.000000pt" height="452.000000pt" viewBox="0 0 452.000000 452.000000"
 preserveAspectRatio="xMidYMid meet">
<metadata>
Created by potrace 1.11, written by Peter Selinger 2001-2013
</metadata>
<g transform="translate(0.000000,452.000000) scale(0.100000,-0.100000)"
fill="#000000" stroke="none">
<path d="M2165 4302 c-38 -21 -146 -78 -240 -126 -93 -49 -192 -101 -220 -116
-27 -15 -117 -62 -200 -105 -82 -43 -190 -99 -240 -125 -49 -26 -148 -78 -220
-115 -71 -37 -152 -80 -180 -95 -27 -15 -122 -65 -210 -110 -88 -46 -182 -95
-210 -110 -27 -15 -73 -39 -101 -54 -29 -16 -57 -39 -63 -52 -17 -39 -15 -318
4 -354 17 -33 67 -53 122 -48 l38 3 6 -95 c4 -68 11 -106 27 -136 24 -47 74
-94 120 -113 l32 -13 1 -292 c2 -1106 1 -1324 -4 -1333 -4 -6 -69 -10 -162
-10 l-156 0 -41 -29 c-77 -54 -83 -74 -83 -280 l0 -181 30 -48 c20 -32 45 -56
74 -72 l44 -23 1924 0 c1870 0 1925 1 1961 19 94 48 112 96 112 293 0 176 -7
211 -52 258 -54 55 -86 63 -245 63 l-143 -1 -1 32 c-1 31 0 1556 1 1587 0 9
14 23 32 30 46 19 96 66 120 113 16 30 23 65 26 134 l4 92 37 1 c86 2 125 22
135 70 10 52 7 306 -5 332 -14 31 -7 27 -574 322 -71 37 -157 82 -190 100 -33
18 -132 70 -220 115 -88 45 -187 97 -220 115 -33 18 -123 65 -200 105 -77 40
-176 92 -220 115 -264 140 -336 175 -357 175 -13 0 -54 -17 -93 -38z m510
-372 c6 -4 73 -40 150 -80 77 -40 185 -96 240 -125 55 -29 251 -132 435 -228
184 -96 387 -203 450 -236 l115 -60 3 -64 3 -63 -1811 0 -1810 0 0 62 0 61
158 83 c86 46 198 104 247 130 50 26 144 75 210 110 66 35 152 80 190 100 39
21 122 64 185 97 260 136 399 208 475 248 44 23 134 70 200 105 66 35 124 67
129 71 7 7 385 -178 431 -211z m-1329 -1044 c7 -3 11 -30 10 -76 -1 -58 -5
-75 -20 -86 -28 -20 -654 -20 -682 0 -15 11 -19 29 -21 89 l-2 76 42 3 c62 4
659 -1 673 -6z m372 -84 c1 -69 7 -96 27 -138 26 -54 74 -98 125 -115 l29 -11
0 -818 1 -818 -272 2 -272 1 0 815 -1 815 40 18 c51 23 91 61 118 112 16 31
21 61 22 130 l2 90 49 5 c27 3 67 3 89 2 l41 -4 2 -86z m897 86 c6 -6 7 -33 6
-94 -1 -54 -4 -62 -26 -72 -17 -8 -127 -11 -345 -11 -272 0 -322 2 -335 15
-23 23 -21 161 2 166 20 4 694 0 698 -4z m366 -8 c0 -8 1 -51 3 -95 4 -118 47
-190 141 -232 l40 -18 0 -813 c0 -805 0 -813 -20 -817 -11 -2 -133 -4 -272 -3
l-252 1 2 815 2 815 44 23 c93 50 132 122 134 247 l0 82 46 5 c87 9 131 6 132
-10z m861 10 l47 0 -1 -72 c-2 -115 20 -108 -361 -108 -261 0 -327 3 -342 14
-16 11 -20 27 -21 87 0 41 0 76 2 79 2 4 280 4 676 0z m-2667 -1167 c1 -445
-3 -810 -7 -813 -6 -5 -328 -5 -349 -1 -3 0 -5 365 -5 811 l0 810 180 0 181 0
0 -807z m1265 -6 l0 -812 -180 0 -180 0 0 812 0 813 180 0 180 0 0 -813z
m1266 1 l-1 -813 -177 0 c-114 0 -178 3 -179 10 -1 5 -2 371 -3 813 l-1 802
181 0 180 0 0 -812z m439 -1129 l0 -134 -1890 0 -1890 0 -2 132 -2 132 37 3
c20 2 872 2 1892 2 l1855 -2 0 -133z"/>
</g>
</svg>
